<svg width="32" height="32" viewBox="0 0 32 32" fill="none" xmlns="http://www.w3.org/2000/svg">
<path d="M16 26C21.5228 26 26 21.5228 26 16C26 10.4772 21.5228 6 16 6C10.4772 6 6 10.4772 6 16C6 21.5228 10.4772 26 16 26Z" stroke="#12263F" stroke-width="2" stroke-linecap="round" stroke-linejoin="round"/>
<path d="M13.0898 13.0006C13.3249 12.3322 13.789 11.7687 14.3998 11.4097C15.0106 11.0507 15.7287 10.9195 16.427 11.0393C17.1253 11.1591 17.7587 11.5221 18.2149 12.0641C18.6712 12.6061 18.9209 13.2921 18.9198 14.0006C18.9198 16.0006 15.9198 17.0006 15.9198 17.0006" stroke="#12263F" stroke-width="2" stroke-linecap="round" stroke-linejoin="round"/>
<path d="M16 21H16.01" stroke="#12263F" stroke-width="2" stroke-linecap="round" stroke-linejoin="round"/>
</svg>
