<svg width="24" height="24" viewBox="0 0 24 24" fill="none" xmlns="http://www.w3.org/2000/svg">
<path d="M19.2322 3H5.17429C4.06515 3 3.16602 3.89543 3.16602 5V19C3.16602 20.1046 4.06515 21 5.17429 21H19.2322C20.3414 21 21.2405 20.1046 21.2405 19V5C21.2405 3.89543 20.3414 3 19.2322 3Z" stroke="#6E84A3" stroke-width="2" stroke-linecap="round" stroke-linejoin="round"/>
<path d="M8.68785 10C9.5197 10 10.1941 9.32843 10.1941 8.5C10.1941 7.67157 9.5197 7 8.68785 7C7.85599 7 7.18164 7.67157 7.18164 8.5C7.18164 9.32843 7.85599 10 8.68785 10Z" stroke="#6E84A3" stroke-width="2" stroke-linecap="round" stroke-linejoin="round"/>
<path d="M21.24 15L16.2193 10L5.17383 21" stroke="#6E84A3" stroke-width="2" stroke-linecap="round" stroke-linejoin="round"/>
</svg>
