<svg width="20" height="21" viewBox="0 0 20 21" fill="none" xmlns="http://www.w3.org/2000/svg">
<path d="M1.75 2.125L18.25 18.625" stroke="white" stroke-width="1.5" stroke-linecap="round" stroke-linejoin="round"/>
<path d="M7.375 18.625H12.625" stroke="white" stroke-width="1.5" stroke-linecap="round"/>
<path d="M10 18.625L10 15.625" stroke="white" stroke-width="1.5" stroke-linecap="round"/>
<path d="M6.73318 3.28263C6.52944 3.64327 6.65663 4.10079 7.01728 4.30453C7.37792 4.50827 7.83544 4.38108 8.03918 4.02044L6.73318 3.28263ZM10 2.875C11.2426 2.875 12.25 3.88236 12.25 5.125L13.75 5.125C13.75 3.05393 12.0711 1.375 10 1.375L10 2.875ZM8.03918 4.02044C8.4264 3.335 9.15997 2.875 10 2.875L10 1.375C8.59735 1.375 7.37562 2.14544 6.73318 3.28263L8.03918 4.02044Z" fill="white"/>
<path d="M7 9.625C7 11.2819 8.34315 12.625 10 12.625C10.6223 12.625 11.2004 12.4355 11.6796 12.1111" stroke="white" stroke-width="1.5" stroke-linecap="round"/>
<path d="M13 5.125L13 8.875" stroke="white" stroke-width="1.5" stroke-linecap="round"/>
<path d="M16.75 8.125C16.75 7.71079 16.4142 7.375 16 7.375C15.5858 7.375 15.25 7.71079 15.25 8.125L16.75 8.125ZM16.75 9.625L16.75 8.125L15.25 8.125L15.25 9.625L16.75 9.625Z" fill="white"/>
<path d="M4.75 8.125C4.75 7.71079 4.41421 7.375 4 7.375C3.58579 7.375 3.25 7.71079 3.25 8.125L4.75 8.125ZM4.75 9.625L4.75 8.125L3.25 8.125L3.25 9.625L4.75 9.625Z" fill="white"/>
<path d="M16 9.625C16 10.361 15.8675 11.066 15.625 11.7176M4 9.625C4 12.9387 6.68629 15.625 10 15.625C11.4189 15.625 12.7228 15.1325 13.75 14.309" stroke="white" stroke-width="1.5" stroke-linecap="round"/>
<path d="M7.75 8.125C7.75 7.71079 7.41421 7.375 7 7.375C6.58579 7.375 6.25 7.71079 6.25 8.125H7.75ZM7.75 9.625V8.125H6.25V9.625H7.75Z" fill="white"/>
</svg>
