<svg width="32" height="32" viewBox="0 0 32 32" fill="none" xmlns="http://www.w3.org/2000/svg">
<path d="M21.0867 8.68494C20.8747 8.47286 20.8747 8.12902 21.0867 7.91695L23.4892 5.51452C23.7012 5.30245 24.0451 5.30245 24.2571 5.51452C24.4692 5.7266 24.4692 6.07044 24.2571 6.28252L21.8547 8.68494C21.6427 8.89701 21.2988 8.89701 21.0867 8.68494Z" fill="#12263F"/>
<path d="M4.17244 11.929C3.96036 12.1411 3.96036 12.4849 4.17244 12.697C4.38451 12.9091 4.72835 12.9091 4.94043 12.697L11.3202 6.31728C11.5322 6.10521 11.5322 5.76137 11.3202 5.54929C11.1081 5.33722 10.7642 5.33722 10.5522 5.54929L4.17244 11.929Z" fill="#12263F"/>
<path d="M4.22281 7.57795C4.01074 7.79002 4.01074 8.13387 4.22281 8.34594C4.43489 8.55802 4.77873 8.55802 4.9908 8.34594L7.01245 6.32429C7.22453 6.11222 7.22453 5.76838 7.01245 5.5563C6.80038 5.34423 6.45653 5.34423 6.24446 5.5563L4.22281 7.57795Z" fill="#12263F"/>
<path d="M4.15906 17.011C3.94698 16.799 3.94698 16.4551 4.15906 16.2431L14.8179 5.58417C15.03 5.3721 15.3738 5.3721 15.5859 5.58417C15.798 5.79625 15.798 6.14009 15.5859 6.35216L4.92705 17.011C4.71497 17.2231 4.37113 17.2231 4.15906 17.011Z" fill="#12263F"/>
<path d="M17.849 6.85412C17.6369 7.0662 17.6369 7.41004 17.849 7.62211C18.0611 7.83419 18.4049 7.83419 18.617 7.62211L19.9169 6.32216C20.129 6.11009 20.129 5.76625 19.9169 5.55417C19.7048 5.3421 19.361 5.3421 19.1489 5.55417L17.849 6.85412Z" fill="#12263F"/>
<path d="M4.176 21.295C3.96393 21.083 3.96393 20.7391 4.176 20.527L9.43458 15.2685C9.64666 15.0564 9.9905 15.0564 10.2026 15.2685C10.4146 15.4805 10.4146 15.8244 10.2026 16.0365L4.94399 21.295C4.73192 21.5071 4.38808 21.5071 4.176 21.295Z" fill="#12263F"/>
<path d="M4.16308 24.8407C3.95101 25.0527 3.95101 25.3966 4.16308 25.6086C4.37516 25.8207 4.719 25.8207 4.93107 25.6086L11.0381 19.5016C11.2502 19.2895 11.2502 18.9457 11.0381 18.7336C10.8261 18.5215 10.4822 18.5215 10.2701 18.7336L4.16308 24.8407Z" fill="#12263F"/>
<path d="M22.4764 10.828C22.2643 11.0401 22.2643 11.3839 22.4764 11.596C22.6884 11.808 23.0323 11.808 23.2443 11.596L28.4063 6.43402C28.6184 6.22195 28.6184 5.8781 28.4063 5.66603C28.1942 5.45395 27.8504 5.45395 27.6383 5.66603L22.4764 10.828Z" fill="#12263F"/>
<path d="M22.4511 15.9221C22.2391 15.71 22.2391 15.3662 22.4511 15.1541L27.6572 9.94807C27.8693 9.73599 28.2131 9.73599 28.4252 9.94807C28.6373 10.1601 28.6373 10.504 28.4252 10.7161L23.2191 15.9221C23.007 16.1342 22.6632 16.1342 22.4511 15.9221Z" fill="#12263F"/>
<path d="M22.8586 19.0474C22.6465 19.2595 22.6465 19.6034 22.8586 19.8154C23.0706 20.0275 23.4145 20.0275 23.6266 19.8154L28.4353 15.0067C28.6473 14.7946 28.6473 14.4508 28.4353 14.2387C28.2232 14.0267 27.8793 14.0267 27.6673 14.2387L22.8586 19.0474Z" fill="#12263F"/>
<path d="M24.2119 22.7629C23.9998 22.5509 23.9998 22.207 24.2119 21.9949L27.7396 18.4672C27.9517 18.2551 28.2955 18.2551 28.5076 18.4672C28.7197 18.6793 28.7197 19.0231 28.5076 19.2352L24.9799 22.7629C24.7678 22.975 24.4239 22.975 24.2119 22.7629Z" fill="#12263F"/>
<path d="M25.2995 24.9004C25.0875 25.1124 25.0875 25.4563 25.2995 25.6684C25.5116 25.8804 25.8554 25.8804 26.0675 25.6684L28.4505 23.2854C28.6626 23.0733 28.6626 22.7294 28.4505 22.5174C28.2385 22.3053 27.8946 22.3053 27.6825 22.5174L25.2995 24.9004Z" fill="#12263F"/>
<path fill-rule="evenodd" clip-rule="evenodd" d="M13.1526 10.4415C14.0064 9.58774 15.1644 9.10807 16.3719 9.10807C17.5793 9.10807 18.7373 9.58774 19.5911 10.4415C20.4449 11.2953 20.9246 12.4533 20.9246 13.6608C20.9246 14.8683 20.4449 16.0263 19.5911 16.8801C18.7373 17.7339 17.5793 18.2135 16.3719 18.2135C15.1644 18.2135 14.0064 17.7339 13.1526 16.8801C12.2988 16.0263 11.8191 14.8683 11.8191 13.6608C11.8191 12.4533 12.2988 11.2953 13.1526 10.4415ZM16.3719 10.7372C15.5965 10.7372 14.8529 11.0452 14.3046 11.5935C13.7563 12.1418 13.4483 12.8854 13.4483 13.6608C13.4483 14.4362 13.7563 15.1798 14.3046 15.7281C14.8529 16.2764 15.5965 16.5844 16.3719 16.5844C17.1472 16.5844 17.8909 16.2764 18.4391 15.7281C18.9874 15.1798 19.2954 14.4362 19.2954 13.6608C19.2954 12.8854 18.9874 12.1418 18.4391 11.5935C17.8909 11.0452 17.1472 10.7372 16.3719 10.7372Z" fill="#12263F"/>
<path d="M12.7075 22.1786C13.6793 21.2068 14.9975 20.6608 16.3719 20.6608C17.7463 20.6608 19.0644 21.2068 20.0363 22.1786C20.8991 23.0414 21.4263 24.1772 21.5337 25.3829C21.5736 25.831 21.9693 26.1619 22.4174 26.1219C22.8655 26.082 23.1964 25.6864 23.1564 25.2383C23.0152 23.6535 22.3223 22.1607 21.1883 21.0267C19.9109 19.7493 18.1784 19.0316 16.3719 19.0316C14.5654 19.0316 12.8329 19.7493 11.5555 21.0267C10.4214 22.1607 9.72856 23.6535 9.58734 25.2383C9.5474 25.6864 9.87829 26.082 10.3264 26.1219C10.7745 26.1619 11.1701 25.831 11.2101 25.3829C11.3175 24.1772 11.8447 23.0414 12.7075 22.1786Z" fill="#12263F"/>
</svg>
