<svg width="32" height="32" viewBox="0 0 32 32" fill="none" xmlns="http://www.w3.org/2000/svg">
<path fill-rule="evenodd" clip-rule="evenodd" d="M5.33268 6.66732H26.666C27.4024 6.66732 27.9993 7.26427 27.9993 8.00065V24.0007C27.9993 24.737 27.4024 25.334 26.666 25.334H5.33268C4.5963 25.334 3.99935 24.737 3.99935 24.0007V8.00065C3.99935 7.26427 4.5963 6.66732 5.33268 6.66732ZM2.66602 8.00065C2.66602 6.52789 3.85992 5.33398 5.33268 5.33398H26.666C28.1388 5.33398 29.3327 6.52789 29.3327 8.00065V24.0007C29.3327 25.4734 28.1388 26.6673 26.666 26.6673H5.33268C3.85992 26.6673 2.66602 25.4734 2.66602 24.0007V8.00065ZM6.66602 21.334V10.6673H9.01996C9.53604 10.6673 9.97312 10.7422 10.3312 10.892C10.6998 11.0418 11 11.2416 11.2317 11.4913C11.4634 11.741 11.6267 12.0306 11.7215 12.3602C11.8268 12.6798 11.8795 13.0144 11.8795 13.3639V13.7535C11.8795 14.0431 11.8531 14.2878 11.8005 14.4875C11.7583 14.6873 11.6899 14.8621 11.5951 15.0119C11.416 15.2915 11.1422 15.5312 10.7736 15.731C11.1527 15.9008 11.4318 16.1505 11.6109 16.4801C11.7899 16.8096 11.8795 17.2591 11.8795 17.8284V18.4276C11.8795 19.3664 11.6372 20.0855 11.1527 20.5849C10.6788 21.0843 9.9152 21.334 8.86198 21.334H6.66602ZM8.27744 16.3902V19.8059H8.97257C9.29906 19.8059 9.55184 19.761 9.73088 19.6711C9.92046 19.5812 10.0626 19.4563 10.1574 19.2965C10.2522 19.1367 10.3102 18.947 10.3312 18.7272C10.3523 18.5075 10.3628 18.2678 10.3628 18.0081C10.3628 17.7385 10.347 17.5038 10.3154 17.304C10.2838 17.1043 10.2206 16.9345 10.1258 16.7947C10.0205 16.6548 9.87833 16.555 9.69929 16.495C9.52024 16.4251 9.28327 16.3902 8.98836 16.3902H8.27744ZM8.27744 12.1055V15.0419H9.00416C9.5413 15.0419 9.8994 14.917 10.0784 14.6673C10.268 14.4076 10.3628 14.0331 10.3628 13.5437C10.3628 13.0643 10.2575 12.7048 10.0469 12.4651C9.84674 12.2254 9.47811 12.1055 8.94097 12.1055H8.27744ZM15.0041 12.1055V15.4314H15.9204C16.2047 15.4314 16.4312 15.3964 16.5997 15.3265C16.7682 15.2466 16.8999 15.1367 16.9946 14.9969C17.0789 14.8571 17.1368 14.6873 17.1684 14.4875C17.2 14.2778 17.2158 14.0381 17.2158 13.7684C17.2158 13.4988 17.2 13.2641 17.1684 13.0643C17.1368 12.8546 17.0736 12.6748 16.9788 12.525C16.7787 12.2453 16.3996 12.1055 15.8414 12.1055H15.0041ZM13.3926 21.334V10.6673H15.9836C17.8793 10.6673 18.8272 11.711 18.8272 13.7984C18.8272 14.4276 18.7219 14.9619 18.5113 15.4014C18.3112 15.8409 17.9531 16.1954 17.437 16.4651L19.1748 21.334H17.4686L15.9678 16.7797H15.0041V21.334H13.3926ZM20.1192 10.6673V21.334H22.3152C23.3684 21.334 24.132 21.0843 24.606 20.5849C25.0904 20.0855 25.3327 19.3664 25.3327 18.4276V17.8284C25.3327 17.2591 25.2432 16.8096 25.0641 16.4801C24.8851 16.1505 24.606 15.9008 24.2268 15.731C24.5954 15.5312 24.8693 15.2915 25.0483 15.0119C25.1431 14.8621 25.2116 14.6873 25.2537 14.4875C25.3064 14.2878 25.3327 14.0431 25.3327 13.7535V13.3639C25.3327 13.0144 25.28 12.6798 25.1747 12.3602C25.0799 12.0306 24.9167 11.741 24.685 11.4913C24.4532 11.2416 24.1531 11.0418 23.7845 10.892C23.4264 10.7422 22.9893 10.6673 22.4732 10.6673H20.1192ZM21.7307 19.8059V16.3902H22.4416C22.7365 16.3902 22.9735 16.4251 23.1525 16.495C23.3316 16.555 23.4738 16.6548 23.5791 16.7947C23.6739 16.9345 23.7371 17.1043 23.7687 17.304C23.8003 17.5038 23.816 17.7385 23.816 18.0081C23.816 18.2678 23.8055 18.5075 23.7845 18.7272C23.7634 18.947 23.7055 19.1367 23.6107 19.2965C23.5159 19.4563 23.3737 19.5812 23.1841 19.6711C23.0051 19.761 22.7523 19.8059 22.4258 19.8059H21.7307ZM21.7307 15.0419V12.1055H22.3942C22.9313 12.1055 23.3 12.2254 23.5001 12.4651C23.7107 12.7048 23.816 13.0643 23.816 13.5437C23.816 14.0331 23.7213 14.4076 23.5317 14.6673C23.3526 14.917 22.9945 15.0419 22.4574 15.0419H21.7307Z" fill="#12263F"/>
</svg>
