<svg width="32" height="32" viewBox="0 0 32 32" fill="none" xmlns="http://www.w3.org/2000/svg">
<path d="M28 9L28 23" stroke="#12263F" stroke-width="2" stroke-linecap="round" stroke-linejoin="round"/>
<path d="M10.18 6.99969L25.82 6.99969C27.024 6.99969 28 7.97571 28 9.17969" stroke="#12263F" stroke-width="2" stroke-linecap="round" stroke-linejoin="round"/>
<path d="M10.18 25L25.82 25C27.024 25 28 24.024 28 22.82" stroke="#12263F" stroke-width="2" stroke-linecap="round" stroke-linejoin="round"/>
<path d="M4 23L4 9" stroke="#12263F" stroke-width="2" stroke-linecap="round" stroke-linejoin="round"/>
<path d="M21.8203 25L6.18031 25C4.97633 25 4.00031 24.024 4.00031 22.82" stroke="#12263F" stroke-width="2" stroke-linecap="round" stroke-linejoin="round"/>
<path d="M4.00031 9.17969C4.00031 7.97571 4.97633 6.99969 6.18031 6.99969L21.8203 6.99969" stroke="#12263F" stroke-width="2" stroke-linecap="round" stroke-linejoin="round"/>
<path d="M20 25L20 7" stroke="#12263F" stroke-width="2" stroke-linecap="round" stroke-linejoin="round"/>
<path d="M28 19L21 19" stroke="#12263F" stroke-width="2" stroke-linecap="round" stroke-linejoin="round"/>
<path d="M28 13L21 13" stroke="#12263F" stroke-width="2" stroke-linecap="round" stroke-linejoin="round"/>
</svg>
