<svg width="33" height="32" viewBox="0 0 33 32" fill="none" xmlns="http://www.w3.org/2000/svg">
<path d="M13 27H20" stroke="#12263F" stroke-width="2" stroke-linecap="round"/>
<path d="M16.5 27L16.5 23" stroke="#12263F" stroke-width="2" stroke-linecap="round"/>
<path d="M12.5 9C12.5 6.79086 14.2909 5 16.5 5C18.7091 5 20.5 6.79086 20.5 9" stroke="#12263F" stroke-width="2"/>
<path d="M20.5 15C20.5 17.2091 18.7091 19 16.5 19C14.2909 19 12.5 17.2091 12.5 15" stroke="#12263F" stroke-width="2"/>
<line x1="12.5" y1="9" x2="12.5" y2="15" stroke="#12263F" stroke-width="2"/>
<line x1="20.5" y1="9" x2="20.5" y2="15" stroke="#12263F" stroke-width="2"/>
<path d="M25.5 13C25.5 12.4477 25.0523 12 24.5 12C23.9477 12 23.5 12.4477 23.5 13H25.5ZM25.5 14V13H23.5V14H25.5Z" fill="#12263F"/>
<path d="M9.5 13C9.5 12.4477 9.05228 12 8.5 12C7.94772 12 7.5 12.4477 7.5 13H9.5ZM9.5 14V13H7.5V14H9.5Z" fill="#12263F"/>
<path d="M24.5 15C24.5 19.4183 20.9183 23 16.5 23C12.0817 23 8.5 19.4183 8.5 15" stroke="#12263F" stroke-width="2" stroke-linecap="square"/>
</svg>
