<svg width="33" height="32" viewBox="0 0 33 32" fill="none" xmlns="http://www.w3.org/2000/svg">
<path d="M16.5 17C17.0523 17 17.5 16.5523 17.5 16C17.5 15.4477 17.0523 15 16.5 15C15.9477 15 15.5 15.4477 15.5 16C15.5 16.5523 15.9477 17 16.5 17Z" stroke="#12263F" stroke-width="2" stroke-linecap="round" stroke-linejoin="round"/>
<path d="M16.5 10C17.0523 10 17.5 9.55228 17.5 9C17.5 8.44772 17.0523 8 16.5 8C15.9477 8 15.5 8.44772 15.5 9C15.5 9.55228 15.9477 10 16.5 10Z" stroke="#12263F" stroke-width="2" stroke-linecap="round" stroke-linejoin="round"/>
<path d="M16.5 24C17.0523 24 17.5 23.5523 17.5 23C17.5 22.4477 17.0523 22 16.5 22C15.9477 22 15.5 22.4477 15.5 23C15.5 23.5523 15.9477 24 16.5 24Z" stroke="#12263F" stroke-width="2" stroke-linecap="round" stroke-linejoin="round"/>
</svg>
