<svg width="49" height="48" viewBox="0 0 49 48" fill="none" xmlns="http://www.w3.org/2000/svg">
<rect x="1" y="0.5" width="47" height="47" rx="9.5" fill="white"/>
<rect x="1" y="0.5" width="47" height="47" rx="9.5" stroke="#E4EBF6"/>
<path d="M24.5 25C25.0523 25 25.5 24.5523 25.5 24C25.5 23.4477 25.0523 23 24.5 23C23.9477 23 23.5 23.4477 23.5 24C23.5 24.5523 23.9477 25 24.5 25Z" stroke="#12263F" stroke-width="2" stroke-linecap="round" stroke-linejoin="round"/>
<path d="M24.5 18C25.0523 18 25.5 17.5523 25.5 17C25.5 16.4477 25.0523 16 24.5 16C23.9477 16 23.5 16.4477 23.5 17C23.5 17.5523 23.9477 18 24.5 18Z" stroke="#12263F" stroke-width="2" stroke-linecap="round" stroke-linejoin="round"/>
<path d="M24.5 32C25.0523 32 25.5 31.5523 25.5 31C25.5 30.4477 25.0523 30 24.5 30C23.9477 30 23.5 30.4477 23.5 31C23.5 31.5523 23.9477 32 24.5 32Z" stroke="#12263F" stroke-width="2" stroke-linecap="round" stroke-linejoin="round"/>
</svg>
