<svg width="32" height="32" viewBox="0 0 32 32" fill="none" xmlns="http://www.w3.org/2000/svg">
<path d="M16 18C17.1046 18 18 17.1046 18 16C18 14.8954 17.1046 14 16 14C14.8954 14 14 14.8954 14 16C14 17.1046 14.8954 18 16 18Z" stroke="white" stroke-width="2" stroke-linecap="round" stroke-linejoin="round"/>
<path d="M20.2398 11.7597C20.7977 12.3169 21.2402 12.9787 21.5422 13.707C21.8441 14.4354 21.9995 15.2162 21.9995 16.0047C21.9995 16.7932 21.8441 17.5739 21.5422 18.3023C21.2402 19.0307 20.7977 19.6924 20.2398 20.2497M11.7598 20.2397C11.202 19.6824 10.7594 19.0207 10.4575 18.2923C10.1555 17.5639 10.0001 16.7832 10.0001 15.9947C10.0001 15.2062 10.1555 14.4254 10.4575 13.697C10.7594 12.9687 11.202 12.3069 11.7598 11.7497M23.0698 8.92969C24.9445 10.805 25.9977 13.348 25.9977 15.9997C25.9977 18.6513 24.9445 21.1944 23.0698 23.0697M8.92982 23.0697C7.05511 21.1944 6.00195 18.6513 6.00195 15.9997C6.00195 13.348 7.05511 10.805 8.92982 8.92969" stroke="white" stroke-width="2" stroke-linecap="round" stroke-linejoin="round"/>
</svg>
