<svg width="33" height="32" viewBox="0 0 33 32" fill="none" xmlns="http://www.w3.org/2000/svg">
<path d="M11.25 23.2742H8.1C7.54305 23.2742 7.0089 23.053 6.61508 22.6591C6.22125 22.2653 6 21.7312 6 21.1742V10.6742C6 10.1173 6.22125 9.58312 6.61508 9.18929C7.0089 8.79547 7.54305 8.57422 8.1 8.57422H24.9C25.457 8.57422 25.9911 8.79547 26.3849 9.18929C26.7787 9.58312 27 10.1173 27 10.6742V21.1742C27 21.7312 26.7787 22.2653 26.3849 22.6591C25.9911 23.053 25.457 23.2742 24.9 23.2742H21.75" stroke="#12263F" stroke-width="2" stroke-linecap="round" stroke-linejoin="round"/>
<path d="M20.7008 18.0242L16.5008 13.8242L12.3008 18.0242" stroke="#12263F" stroke-width="2" stroke-linecap="round" stroke-linejoin="round"/>
<path d="M16.5 13.8242L16.5 26.4242" stroke="#12263F" stroke-width="2" stroke-linecap="round" stroke-linejoin="round"/>
</svg>
