<svg width="33" height="32" viewBox="0 0 33 32" fill="none" xmlns="http://www.w3.org/2000/svg">
<path d="M20.5 20V21C20.5 21.5304 20.2893 22.0391 19.9142 22.4142C19.5391 22.7893 19.0304 23 18.5 23H7.5C6.96957 23 6.46086 22.7893 6.08579 22.4142C5.71071 22.0391 5.5 21.5304 5.5 21V11C5.5 10.4696 5.71071 9.96086 6.08579 9.58579C6.46086 9.21071 6.96957 9 7.5 9H9.5M15.16 9H18.5C19.0304 9 19.5391 9.21071 19.9142 9.58579C20.2893 9.96086 20.5 10.4696 20.5 11V14.34L21.5 15.34L27.5 11V21" stroke="white" stroke-width="2" stroke-linecap="round" stroke-linejoin="round"/>
<path d="M5.5 5L27.5 27" stroke="white" stroke-width="2" stroke-linecap="round" stroke-linejoin="round"/>
</svg>
