<svg width="16" height="17" viewBox="0 0 16 17" fill="none" xmlns="http://www.w3.org/2000/svg">
<g id="Group 9234">
<g id="Group 9233">
<path id="Vector" d="M3.675 1.70312L1.5 4.60313V14.7531C1.5 15.1377 1.65277 15.5065 1.9247 15.7784C2.19662 16.0504 2.56544 16.2031 2.95 16.2031H13.1C13.4846 16.2031 13.8534 16.0504 14.1253 15.7784C14.3972 15.5065 14.55 15.1377 14.55 14.7531V4.60313L12.375 1.70312H3.675Z" stroke="#B1C2D9" stroke-width="1.5" stroke-linecap="round" stroke-linejoin="round"/>
<path id="Vector_2" d="M1.5 4.60156H14.55" stroke="#B1C2D9" stroke-width="1.5" stroke-linecap="round" stroke-linejoin="round"/>
</g>
<path id="Vector_3" d="M10.925 7.50391C10.925 8.27303 10.6195 9.01066 10.0756 9.55452C9.53175 10.0984 8.79413 10.4039 8.025 10.4039C7.25587 10.4039 6.51825 10.0984 5.97439 9.55452C5.43053 9.01066 5.125 8.27303 5.125 7.50391" stroke="#B1C2D9" stroke-width="1.5" stroke-linecap="round" stroke-linejoin="round"/>
</g>
</svg>
