<svg width="16" height="16" viewBox="0 0 16 16" fill="none" xmlns="http://www.w3.org/2000/svg">
<g id="Group 9232">
<path id="Vector" d="M14.4473 10.724C14.002 11.7772 13.3054 12.7052 12.4186 13.4269C11.5318 14.1487 10.4816 14.6422 9.35999 14.8644C8.23836 15.0865 7.07938 15.0305 5.98439 14.7013C4.88939 14.372 3.89172 13.7796 3.0786 12.9757C2.26547 12.1718 1.66165 11.181 1.31993 10.0898C0.978201 8.99863 0.908975 7.84037 1.1183 6.71627C1.32763 5.59218 1.80913 4.53647 2.52071 3.64145C3.2323 2.74643 4.1523 2.03935 5.20028 1.58203" stroke="#B1C2D9" stroke-width="1.5" stroke-linecap="round" stroke-linejoin="round"/>
<path id="Vector_2" d="M15 8C15 7.08075 14.8189 6.17049 14.4672 5.32122C14.1154 4.47194 13.5998 3.70026 12.9497 3.05025C12.2997 2.40024 11.5281 1.88463 10.6788 1.53284C9.82951 1.18106 8.91925 1 8 1V8H15Z" stroke="#B1C2D9" stroke-width="1.5" stroke-linecap="round" stroke-linejoin="round"/>
</g>
</svg>
