<svg width="14" height="17" viewBox="0 0 14 17" fill="none" xmlns="http://www.w3.org/2000/svg">
<g id="Group 9615">
<path id="Vector" d="M9.91111 2.93359H11.3631C11.7482 2.93359 12.1175 3.08657 12.3898 3.35887C12.6621 3.63117 12.8151 4.00049 12.8151 4.38558V14.5494C12.8151 14.9345 12.6621 15.3039 12.3898 15.5762C12.1175 15.8485 11.7482 16.0014 11.3631 16.0014H2.6512C2.26611 16.0014 1.89679 15.8485 1.62449 15.5762C1.35219 15.3039 1.19922 14.9345 1.19922 14.5494V4.38558C1.19922 4.00049 1.35219 3.63117 1.62449 3.35887C1.89679 3.08657 2.26611 2.93359 2.6512 2.93359H4.10318" stroke="#B1C2D9" stroke-width="1.5" stroke-linecap="round" stroke-linejoin="round"/>
<path id="Vector_2" d="M9.19131 1.5H4.83537C4.43441 1.5 4.10938 1.82504 4.10938 2.22599V3.67797C4.10938 4.07893 4.43441 4.40396 4.83537 4.40396H9.19131C9.59227 4.40396 9.9173 4.07893 9.9173 3.67797V2.22599C9.9173 1.82504 9.59227 1.5 9.19131 1.5Z" stroke="#B1C2D9" stroke-width="1.5" stroke-linecap="round" stroke-linejoin="round"/>
</g>
</svg>
