<svg width="20" height="20" viewBox="0 0 20 20" fill="none" xmlns="http://www.w3.org/2000/svg">
<path d="M13.3334 3.33203H15C15.4421 3.33203 15.866 3.50763 16.1786 3.82019C16.4911 4.13275 16.6667 4.55667 16.6667 4.9987V16.6654C16.6667 17.1074 16.4911 17.5313 16.1786 17.8439C15.866 18.1564 15.4421 18.332 15 18.332H5.00004C4.55801 18.332 4.13409 18.1564 3.82153 17.8439C3.50897 17.5313 3.33337 17.1074 3.33337 16.6654V4.9987C3.33337 4.55667 3.50897 4.13275 3.82153 3.82019C4.13409 3.50763 4.55801 3.33203 5.00004 3.33203H6.66671" stroke="#6E84A3" stroke-width="1.66667" stroke-linecap="round" stroke-linejoin="round"/>
<path d="M12.5 1.66797H7.49996C7.03972 1.66797 6.66663 2.04106 6.66663 2.5013V4.16797C6.66663 4.62821 7.03972 5.0013 7.49996 5.0013H12.5C12.9602 5.0013 13.3333 4.62821 13.3333 4.16797V2.5013C13.3333 2.04106 12.9602 1.66797 12.5 1.66797Z" stroke="#6E84A3" stroke-width="1.66667" stroke-linecap="round" stroke-linejoin="round"/>
</svg>
