<svg width="20" height="20" viewBox="0 0 20 20" fill="none" xmlns="http://www.w3.org/2000/svg">
<g clip-path="url(#clip0_7074_1497151)">
<path d="M9.16663 3.33203H3.33329C2.89127 3.33203 2.46734 3.50763 2.15478 3.82019C1.84222 4.13275 1.66663 4.55667 1.66663 4.9987V16.6654C1.66663 17.1074 1.84222 17.5313 2.15478 17.8439C2.46734 18.1564 2.89127 18.332 3.33329 18.332H15C15.442 18.332 15.8659 18.1564 16.1785 17.8439C16.491 17.5313 16.6666 17.1074 16.6666 16.6654V10.832" stroke="black" stroke-width="1.66667" stroke-linecap="round" stroke-linejoin="round"/>
<path d="M15.4166 2.08417C15.7481 1.75265 16.1978 1.56641 16.6666 1.56641C17.1355 1.56641 17.5851 1.75265 17.9166 2.08417C18.2481 2.41569 18.4344 2.86533 18.4344 3.33417C18.4344 3.80301 18.2481 4.25265 17.9166 4.58417L9.99996 12.5008L6.66663 13.3342L7.49996 10.0008L15.4166 2.08417Z" stroke="black" stroke-width="1.66667" stroke-linecap="round" stroke-linejoin="round"/>
</g>
<defs>
<clipPath id="clip0_7074_1497151">
<rect width="20" height="20" fill="white"/>
</clipPath>
</defs>
</svg>
