<svg width="20" height="20" viewBox="0 0 20 20" fill="none" xmlns="http://www.w3.org/2000/svg">
<g clip-path="url(#clip0_7074_1497161)">
<path d="M17.6751 13.2427C17.1449 14.4964 16.3157 15.6012 15.2599 16.4605C14.2042 17.3197 12.954 17.9072 11.6187 18.1717C10.2835 18.4362 8.90374 18.3695 7.60017 17.9775C6.29661 17.5856 5.10891 16.8803 4.1409 15.9233C3.1729 14.9662 2.45406 13.7867 2.04725 12.4877C1.64043 11.1887 1.55802 9.80978 1.80722 8.47157C2.05641 7.13336 2.62963 5.87656 3.47676 4.81107C4.32388 3.74557 5.41912 2.90381 6.66672 2.35938" stroke="black" stroke-width="1.66667" stroke-linecap="round" stroke-linejoin="round"/>
<path d="M18.3333 10.0013C18.3333 8.90695 18.1178 7.82332 17.699 6.81227C17.2802 5.80123 16.6664 4.88257 15.8926 4.10875C15.1187 3.33492 14.2001 2.7211 13.189 2.30231C12.178 1.88352 11.0943 1.66797 10 1.66797V10.0013H18.3333Z" stroke="black" stroke-width="1.66667" stroke-linecap="round" stroke-linejoin="round"/>
</g>
<defs>
<clipPath id="clip0_7074_1497161">
<rect width="20" height="20" fill="white"/>
</clipPath>
</defs>
</svg>
