<svg width="20" height="20" viewBox="0 0 20 20" fill="none" xmlns="http://www.w3.org/2000/svg">
<path d="M13.5874 17.4861V15.9003C13.5874 15.0591 13.2532 14.2523 12.6584 13.6575C12.0636 13.0627 11.2569 12.7285 10.4157 12.7285H4.07215C3.23094 12.7285 2.4242 13.0627 1.82938 13.6575C1.23456 14.2523 0.900391 15.0591 0.900391 15.9003V17.4861" stroke="#12263F" stroke-width="1.67" stroke-linecap="round" stroke-linejoin="round"/>
<path d="M7.24597 9.5564C8.99768 9.5564 10.4177 8.13636 10.4177 6.38465C10.4177 4.63293 8.99768 3.21289 7.24597 3.21289C5.49426 3.21289 4.07422 4.63293 4.07422 6.38465C4.07422 8.13636 5.49426 9.5564 7.24597 9.5564Z" stroke="#12263F" stroke-width="1.67" stroke-linecap="round" stroke-linejoin="round"/>
<path d="M12.792 2.81641H19.1355" stroke="#12263F" stroke-width="1.67" stroke-linecap="round"/>
<path d="M15.1699 5.5918L19.1346 5.5918" stroke="#12263F" stroke-width="1.67" stroke-linecap="round"/>
<path d="M13.5898 17.486L16.7616 8.76367" stroke="#12263F" stroke-width="1.67" stroke-linecap="round"/>
</svg>
