<svg width="20" height="20" viewBox="0 0 20 20" fill="none" xmlns="http://www.w3.org/2000/svg">
<path d="M13.5874 17.4852V15.8993C13.5874 15.0581 13.2532 14.2513 12.6584 13.6565C12.0636 13.0617 11.2569 12.7275 10.4157 12.7275H4.07215C3.23094 12.7275 2.4242 13.0617 1.82938 13.6565C1.23456 14.2513 0.900391 15.0581 0.900391 15.8993V17.4852" stroke="#6E84A3" stroke-width="1.67" stroke-linecap="round" stroke-linejoin="round"/>
<path d="M7.24597 9.55542C8.99768 9.55542 10.4177 8.13538 10.4177 6.38367C10.4177 4.63196 8.99768 3.21191 7.24597 3.21191C5.49426 3.21191 4.07422 4.63196 4.07422 6.38367C4.07422 8.13538 5.49426 9.55542 7.24597 9.55542Z" stroke="#6E84A3" stroke-width="1.67" stroke-linecap="round" stroke-linejoin="round"/>
<path d="M12.792 2.81543H19.1355" stroke="#6E84A3" stroke-width="1.67" stroke-linecap="round"/>
<path d="M15.1699 5.59082L19.1346 5.59082" stroke="#6E84A3" stroke-width="1.67" stroke-linecap="round"/>
<path d="M13.5898 17.485L16.7616 8.7627" stroke="#6E84A3" stroke-width="1.67" stroke-linecap="round"/>
</svg>
