<svg width="20" height="20" viewBox="0 0 20 20" fill="none" xmlns="http://www.w3.org/2000/svg">
<g clip-path="url(#clip0_7074_1497208)">
<path d="M10 12.5C11.3807 12.5 12.5 11.3807 12.5 10C12.5 8.61929 11.3807 7.5 10 7.5C8.61929 7.5 7.5 8.61929 7.5 10C7.5 11.3807 8.61929 12.5 10 12.5Z" stroke="#6E84A3" stroke-width="1.66667" stroke-linecap="round" stroke-linejoin="round"/>
<path d="M16.1667 12.4987C16.0558 12.75 16.0227 13.0289 16.0717 13.2992C16.1207 13.5695 16.2496 13.819 16.4417 14.0154L16.4917 14.0654C16.6467 14.2202 16.7696 14.404 16.8535 14.6063C16.9373 14.8086 16.9805 15.0255 16.9805 15.2445C16.9805 15.4636 16.9373 15.6804 16.8535 15.8828C16.7696 16.0851 16.6467 16.2689 16.4917 16.4237C16.3369 16.5787 16.1531 16.7016 15.9508 16.7855C15.7484 16.8693 15.5316 16.9125 15.3125 16.9125C15.0935 16.9125 14.8766 16.8693 14.6743 16.7855C14.472 16.7016 14.2882 16.5787 14.1334 16.4237L14.0834 16.3737C13.887 16.1816 13.6375 16.0527 13.3672 16.0037C13.0969 15.9547 12.8181 15.9878 12.5667 16.0987C12.3202 16.2043 12.11 16.3797 11.962 16.6033C11.8139 16.8269 11.7344 17.0889 11.7334 17.357V17.4987C11.7334 17.9407 11.5578 18.3646 11.2452 18.6772C10.9327 18.9898 10.5087 19.1654 10.0667 19.1654C9.62468 19.1654 9.20076 18.9898 8.8882 18.6772C8.57563 18.3646 8.40004 17.9407 8.40004 17.4987V17.4237C8.39359 17.1479 8.30431 16.8804 8.1438 16.6559C7.98329 16.4315 7.75899 16.2606 7.50004 16.1654C7.24869 16.0544 6.96988 16.0213 6.69955 16.0704C6.42922 16.1194 6.17977 16.2482 5.98337 16.4404L5.93337 16.4904C5.77858 16.6453 5.59477 16.7683 5.39244 16.8521C5.19011 16.936 4.97323 16.9792 4.75421 16.9792C4.53518 16.9792 4.3183 16.936 4.11597 16.8521C3.91364 16.7683 3.72983 16.6453 3.57504 16.4904C3.42008 16.3356 3.29715 16.1518 3.21327 15.9494C3.1294 15.7471 3.08623 15.5302 3.08623 15.3112C3.08623 15.0922 3.1294 14.8753 3.21327 14.673C3.29715 14.4706 3.42008 14.2868 3.57504 14.132L3.62504 14.082C3.81715 13.8856 3.94603 13.6362 3.99504 13.3659C4.04406 13.0955 4.01097 12.8167 3.90004 12.5654C3.7944 12.3189 3.619 12.1087 3.39543 11.9606C3.17185 11.8126 2.90986 11.7331 2.64171 11.732H2.50004C2.05801 11.732 1.63409 11.5564 1.32153 11.2439C1.00897 10.9313 0.833374 10.5074 0.833374 10.0654C0.833374 9.62334 1.00897 9.19941 1.32153 8.88685C1.63409 8.57429 2.05801 8.3987 2.50004 8.3987H2.57504C2.85087 8.39225 3.11838 8.30296 3.34279 8.14246C3.5672 7.98195 3.73814 7.75764 3.83337 7.4987C3.9443 7.24735 3.97739 6.96854 3.92838 6.69821C3.87936 6.42788 3.75049 6.17843 3.55837 5.98203L3.50837 5.93203C3.35341 5.77724 3.23048 5.59343 3.14661 5.3911C3.06273 5.18877 3.01956 4.97189 3.01956 4.75286C3.01956 4.53384 3.06273 4.31696 3.14661 4.11463C3.23048 3.9123 3.35341 3.72849 3.50837 3.5737C3.66316 3.41874 3.84698 3.29581 4.04931 3.21193C4.25164 3.12806 4.46851 3.08489 4.68754 3.08489C4.90657 3.08489 5.12344 3.12806 5.32577 3.21193C5.5281 3.29581 5.71192 3.41874 5.86671 3.5737L5.91671 3.6237C6.11311 3.81581 6.36255 3.94469 6.63288 3.9937C6.90321 4.04272 7.18203 4.00963 7.43337 3.8987H7.50004C7.74651 3.79306 7.95672 3.61766 8.10478 3.39409C8.25285 3.17051 8.3323 2.90852 8.33337 2.64036V2.4987C8.33337 2.05667 8.50897 1.63275 8.82153 1.32019C9.13409 1.00763 9.55801 0.832031 10 0.832031C10.4421 0.832031 10.866 1.00763 11.1786 1.32019C11.4911 1.63275 11.6667 2.05667 11.6667 2.4987V2.5737C11.6678 2.84185 11.7472 3.10384 11.8953 3.32742C12.0434 3.55099 12.2536 3.7264 12.5 3.83203C12.7514 3.94296 13.0302 3.97605 13.3005 3.92703C13.5709 3.87802 13.8203 3.74914 14.0167 3.55703L14.0667 3.50703C14.2215 3.35207 14.4053 3.22914 14.6076 3.14526C14.81 3.06139 15.0268 3.01822 15.2459 3.01822C15.4649 3.01822 15.6818 3.06139 15.8841 3.14526C16.0864 3.22914 16.2702 3.35207 16.425 3.50703C16.58 3.66182 16.7029 3.84563 16.7868 4.04796C16.8707 4.25029 16.9139 4.46717 16.9139 4.6862C16.9139 4.90522 16.8707 5.1221 16.7868 5.32443C16.7029 5.52676 16.58 5.71058 16.425 5.86536L16.375 5.91536C16.1829 6.11176 16.0541 6.36121 16.005 6.63154C15.956 6.90187 15.9891 7.18068 16.1 7.43203V7.4987C16.2057 7.74517 16.3811 7.95538 16.6047 8.10344C16.8282 8.2515 17.0902 8.33096 17.3584 8.33203H17.5C17.9421 8.33203 18.366 8.50763 18.6785 8.82019C18.9911 9.13275 19.1667 9.55667 19.1667 9.9987C19.1667 10.4407 18.9911 10.8646 18.6785 11.1772C18.366 11.4898 17.9421 11.6654 17.5 11.6654H17.425C17.1569 11.6664 16.8949 11.7459 16.6713 11.894C16.4477 12.042 16.2723 12.2522 16.1667 12.4987Z" stroke="#6E84A3" stroke-width="1.66667" stroke-linecap="round" stroke-linejoin="round"/>
</g>
<defs>
<clipPath id="clip0_7074_1497208">
<rect width="20" height="20" fill="white"/>
</clipPath>
</defs>
</svg>
