<svg width="21" height="20" viewBox="0 0 21 20" fill="none" xmlns="http://www.w3.org/2000/svg">
<path d="M18 9.58336C18.0029 10.6832 17.7459 11.7683 17.25 12.75C16.662 13.9265 15.7581 14.916 14.6395 15.6078C13.521 16.2995 12.2319 16.6662 10.9167 16.6667C9.81678 16.6696 8.73176 16.4126 7.75 15.9167L3 17.5L4.58333 12.75C4.08744 11.7683 3.83047 10.6832 3.83333 9.58336C3.83384 8.26815 4.20051 6.97907 4.89227 5.86048C5.58402 4.7419 6.57355 3.838 7.75 3.25002C8.73176 2.75413 9.81678 2.49716 10.9167 2.50002H11.3333C13.0703 2.59585 14.7109 3.32899 15.941 4.55907C17.171 5.78915 17.9042 7.42973 18 9.16669V9.58336Z" stroke="#12263F" stroke-width="1.66667" stroke-linecap="round" stroke-linejoin="round"/>
</svg>
