<svg width="21" height="20" viewBox="0 0 21 20" fill="none" xmlns="http://www.w3.org/2000/svg">
<path d="M10.5003 18.3307C15.1027 18.3307 18.8337 14.5998 18.8337 9.9974C18.8337 5.39502 15.1027 1.66406 10.5003 1.66406C5.89795 1.66406 2.16699 5.39502 2.16699 9.9974C2.16699 14.5998 5.89795 18.3307 10.5003 18.3307Z" stroke="#12263F" stroke-width="1.66667" stroke-linecap="round" stroke-linejoin="round"/>
<path d="M8.0752 7.49852C8.27112 6.94158 8.65782 6.47194 9.16682 6.1728C9.67583 5.87365 10.2743 5.7643 10.8562 5.86411C11.4381 5.96393 11.9659 6.26646 12.3461 6.71813C12.7263 7.1698 12.9344 7.74146 12.9335 8.33185C12.9335 9.99852 10.4335 10.8319 10.4335 10.8319" stroke="#12263F" stroke-width="1.66667" stroke-linecap="round" stroke-linejoin="round"/>
<path d="M10.5 14.1641H10.5083" stroke="#12263F" stroke-width="1.66667" stroke-linecap="round" stroke-linejoin="round"/>
</svg>
