<svg width="20" height="20" viewBox="0 0 20 20" fill="none" xmlns="http://www.w3.org/2000/svg">
<g clip-path="url(#clip0_8802_172093)">
<path d="M17.6747 13.2427C17.1445 14.4964 16.3153 15.6012 15.2596 16.4605C14.2038 17.3197 12.9537 17.9072 11.6184 18.1717C10.2831 18.4362 8.90337 18.3695 7.59981 17.9775C6.29624 17.5856 5.10854 16.8803 4.14053 15.9233C3.17253 14.9662 2.4537 13.7867 2.04688 12.4877C1.64006 11.1887 1.55765 9.80978 1.80685 8.47157C2.05605 7.13336 2.62926 5.87656 3.47639 4.81107C4.32351 3.74557 5.41875 2.90381 6.66635 2.35938" stroke="#6E84A3" stroke-width="1.66667" stroke-linecap="round" stroke-linejoin="round"/>
<path d="M18.3333 9.9974C18.3333 8.90305 18.1178 7.81941 17.699 6.80837C17.2802 5.79732 16.6664 4.87866 15.8926 4.10484C15.1187 3.33102 14.2001 2.71719 13.189 2.2984C12.178 1.87961 11.0943 1.66406 10 1.66406V9.9974H18.3333Z" stroke="#6E84A3" stroke-width="1.66667" stroke-linecap="round" stroke-linejoin="round"/>
</g>
<defs>
<clipPath id="clip0_8802_172093">
<rect width="20" height="20" fill="white"/>
</clipPath>
</defs>
</svg>
