<svg width="21" height="20" viewBox="0 0 21 20" fill="none" xmlns="http://www.w3.org/2000/svg">
<path d="M18.1747 13.2427C17.6445 14.4964 16.8153 15.6012 15.7596 16.4605C14.7038 17.3197 13.4537 17.9072 12.1184 18.1717C10.7831 18.4362 9.40337 18.3695 8.09981 17.9775C6.79624 17.5856 5.60854 16.8803 4.64053 15.9233C3.67253 14.9662 2.9537 13.7867 2.54688 12.4877C2.14006 11.1887 2.05765 9.80978 2.30685 8.47157C2.55605 7.13336 3.12926 5.87656 3.97639 4.81107C4.82351 3.74557 5.91875 2.90381 7.16635 2.35938" stroke="#12263F" stroke-width="1.66667" stroke-linecap="round" stroke-linejoin="round"/>
<path d="M18.8333 9.9974C18.8333 8.90305 18.6178 7.81941 18.199 6.80837C17.7802 5.79732 17.1664 4.87866 16.3926 4.10484C15.6187 3.33102 14.7001 2.71719 13.689 2.2984C12.678 1.87961 11.5943 1.66406 10.5 1.66406V9.9974H18.8333Z" stroke="#12263F" stroke-width="1.66667" stroke-linecap="round" stroke-linejoin="round"/>
</svg>
