<svg width="21" height="20" viewBox="0 0 21 20" fill="none" xmlns="http://www.w3.org/2000/svg">
<path d="M5.5 1.66406L3 4.9974V16.6641C3 17.1061 3.17559 17.53 3.48816 17.8426C3.80072 18.1551 4.22464 18.3307 4.66667 18.3307H16.3333C16.7754 18.3307 17.1993 18.1551 17.5118 17.8426C17.8244 17.53 18 17.1061 18 16.6641V4.9974L15.5 1.66406H5.5Z" stroke="#12263F" stroke-width="1.66667" stroke-linecap="round" stroke-linejoin="round"/>
<path d="M3 5H18" stroke="#12263F" stroke-width="1.66667" stroke-linecap="round" stroke-linejoin="round"/>
<path d="M13.8337 8.33594C13.8337 9.21999 13.4825 10.0678 12.8573 10.693C12.2322 11.3181 11.3844 11.6693 10.5003 11.6693C9.61627 11.6693 8.76842 11.3181 8.1433 10.693C7.51818 10.0678 7.16699 9.21999 7.16699 8.33594" stroke="#12263F" stroke-width="1.66667" stroke-linecap="round" stroke-linejoin="round"/>
</svg>
