<svg width="20" height="20" viewBox="0 0 20 20" fill="none" xmlns="http://www.w3.org/2000/svg">
<g clip-path="url(#clip0_3107_111599)">
<path d="M10 1.5C5.30558 1.5 1.5 5.30558 1.5 10C1.5 14.6944 5.30558 18.5 10 18.5C14.6944 18.5 18.5 14.6944 18.5 10C18.5 5.30558 14.6944 1.5 10 1.5Z" fill="#2C7BE5" stroke="white" stroke-linecap="round" stroke-linejoin="round"/>
<path d="M10.8774 8.29998V6.69999C10.8774 6.38173 10.7489 6.07651 10.5203 5.85147C10.2916 5.62643 9.98144 5.5 9.65804 5.5L8.03225 9.09998V13.4999H12.617C12.813 13.5021 13.0033 13.4345 13.1527 13.3096C13.302 13.1846 13.4005 13.0107 13.4299 12.82L13.9908 9.21998C14.0085 9.10532 14.0006 8.98825 13.9678 8.87688C13.9349 8.76551 13.8778 8.6625 13.8005 8.57499C13.7232 8.48747 13.6275 8.41755 13.52 8.37007C13.4124 8.32258 13.2957 8.29867 13.1779 8.29998H10.8774ZM8.03225 13.4999H6.8129C6.5973 13.4999 6.39054 13.4157 6.23809 13.2656C6.08564 13.1156 6 12.9121 6 12.7V9.89997C6 9.6878 6.08564 9.48432 6.23809 9.33429C6.39054 9.18426 6.5973 9.09998 6.8129 9.09998H8.03225" fill="white"/>
<path d="M8.03225 9.09998L9.65804 5.5C9.98144 5.5 10.2916 5.62643 10.5203 5.85147C10.7489 6.07651 10.8774 6.38173 10.8774 6.69999V8.29998H13.1779C13.2957 8.29867 13.4124 8.32258 13.52 8.37007C13.6275 8.41755 13.7232 8.48747 13.8005 8.57499C13.8778 8.6625 13.9349 8.76551 13.9678 8.87688C14.0006 8.98825 14.0085 9.10532 13.9908 9.21998L13.4299 12.82C13.4005 13.0107 13.302 13.1846 13.1527 13.3096C13.0033 13.4345 12.813 13.5021 12.617 13.4999H8.03225M8.03225 9.09998V13.4999M8.03225 9.09998H6.8129C6.5973 9.09998 6.39054 9.18426 6.23809 9.33429C6.08564 9.48432 6 9.6878 6 9.89997V12.7C6 12.9121 6.08564 13.1156 6.23809 13.2656C6.39054 13.4157 6.5973 13.4999 6.8129 13.4999H8.03225" stroke="#2C7BE5" stroke-width="0.5" stroke-linecap="round" stroke-linejoin="round"/>
<rect x="-2684" y="-1855" width="14389" height="13753" stroke="black" stroke-width="100"/>
</g>
<defs>
<clipPath id="clip0_3107_111599">
<rect width="20" height="20" fill="white"/>
</clipPath>
</defs>
</svg>
