<svg width="20" height="20" viewBox="0 0 20 20" fill="none" xmlns="http://www.w3.org/2000/svg">
<path d="M10 1.5C5.30558 1.5 1.5 5.30558 1.5 10C1.5 14.6944 5.30558 18.5 10 18.5C14.6944 18.5 18.5 14.6944 18.5 10C18.5 5.30558 14.6944 1.5 10 1.5Z" fill="#E63757" stroke="white" stroke-linecap="round" stroke-linejoin="round"/>
<path d="M11.1701 7.90764L11.1702 7.90747C11.2981 7.77703 11.449 7.67458 11.6137 7.60505C11.7783 7.53553 11.9541 7.5 12.1311 7.5C12.3082 7.5 12.484 7.53553 12.6486 7.60505C12.8133 7.67458 12.9641 7.77703 13.0921 7.90747L13.0924 7.9078C13.2204 8.03822 13.323 8.19409 13.3933 8.36698C13.4636 8.53991 13.5 8.7259 13.5 8.91416C13.5 9.10243 13.4636 9.28842 13.3933 9.46134C13.323 9.63424 13.2204 9.79011 13.0924 9.92053L13.0922 9.92069L12.6359 10.3858L9.99989 13.0722L9.03879 12.0927L7.36392 10.3858L6.6745 11.0623L7.36392 10.3858L6.90753 9.92069C6.64871 9.65692 6.5 9.29521 6.5 8.91416C6.5 8.53312 6.64871 8.17141 6.90753 7.90763C7.16572 7.64451 7.51182 7.50023 7.86862 7.50023C8.22543 7.50023 8.57153 7.64451 8.82972 7.90763L9.28611 8.37276C9.47416 8.5644 9.73139 8.67238 9.99989 8.67238C10.2684 8.67238 10.5256 8.5644 10.7137 8.37276L11.1701 7.90764Z" fill="white" stroke="white" stroke-width="2" stroke-linecap="round" stroke-linejoin="round"/>
</svg>
