<svg width="20" height="20" viewBox="0 0 20 20" fill="none" xmlns="http://www.w3.org/2000/svg">
<path d="M10 1.5C5.30558 1.5 1.5 5.30558 1.5 10C1.5 14.6944 5.30558 18.5 10 18.5C14.6944 18.5 18.5 14.6944 18.5 10C18.5 5.30558 14.6944 1.5 10 1.5Z" fill="#E63757" stroke="white" stroke-linecap="round" stroke-linejoin="round"/>
<path d="M13.806 7.20726C13.5861 6.98304 13.325 6.80517 13.0376 6.68381C12.7502 6.56246 12.4422 6.5 12.1311 6.5C11.8201 6.5 11.512 6.56246 11.2247 6.68381C10.9373 6.80517 10.6762 6.98304 10.4563 7.20726L9.99989 7.67238L9.54349 7.20726C9.09929 6.75456 8.49682 6.50023 7.86862 6.50023C7.24043 6.50023 6.63796 6.75456 6.19375 7.20726C5.74955 7.65996 5.5 8.27395 5.5 8.91416C5.5 9.55438 5.74955 10.1684 6.19375 10.6211L6.65014 11.0862L8.32502 12.7931L9.99989 14.5L13.3496 11.0862L13.806 10.6211C14.026 10.397 14.2006 10.1309 14.3196 9.83798C14.4387 9.5451 14.5 9.23119 14.5 8.91416C14.5 8.59714 14.4387 8.28322 14.3196 7.99035C14.2006 7.69747 14.026 7.43137 13.806 7.20726Z" fill="white"/>
</svg>
