<svg width="20" height="20" viewBox="0 0 20 20" fill="none" xmlns="http://www.w3.org/2000/svg">
<path d="M10 1.5C5.30558 1.5 1.5 5.30558 1.5 10C1.5 14.6944 5.30558 18.5 10 18.5C14.6944 18.5 18.5 14.6944 18.5 10C18.5 5.30558 14.6944 1.5 10 1.5Z" fill="#F5D83E" stroke="white" stroke-linecap="round" stroke-linejoin="round"/>
<path fill-rule="evenodd" clip-rule="evenodd" d="M9.99922 14.7992C12.6502 14.7992 14.7992 12.6502 14.7992 9.99922C14.7992 7.34825 12.6502 5.19922 9.99922 5.19922C7.34825 5.19922 5.19922 7.34825 5.19922 9.99922C5.19922 12.6502 7.34825 14.7992 9.99922 14.7992ZM8.19922 9.59922C8.53059 9.59922 8.79922 9.33059 8.79922 8.99922C8.79922 8.66785 8.53059 8.39922 8.19922 8.39922C7.86785 8.39922 7.59922 8.66785 7.59922 8.99922C7.59922 9.33059 7.86785 9.59922 8.19922 9.59922ZM12.3992 8.99922C12.3992 9.33059 12.1306 9.59922 11.7992 9.59922C11.4678 9.59922 11.1992 9.33059 11.1992 8.99922C11.1992 8.66785 11.4678 8.39922 11.7992 8.39922C12.1306 8.39922 12.3992 8.66785 12.3992 8.99922ZM10.3528 11.9527C10.7256 11.5799 11.0435 11.5522 11.2763 11.6178C11.5436 11.6931 11.8017 11.922 11.952 12.2227C12.0755 12.4696 12.3759 12.5697 12.6229 12.4462C12.8698 12.3227 12.9699 12.0223 12.8464 11.7754C12.5968 11.2762 12.1383 10.8217 11.5474 10.6552C10.9219 10.4791 10.2399 10.6514 9.64566 11.2456C9.13176 11.7596 8.80363 11.7599 8.6205 11.7141C8.37438 11.6526 8.16582 11.4587 7.95281 11.2456C7.75756 11.0503 7.44098 11.0503 7.2457 11.2455C7.05042 11.4408 7.05039 11.7574 7.24563 11.9527L7.26405 11.9711C7.45763 12.1652 7.84163 12.5502 8.37794 12.6843C8.9948 12.8385 9.66668 12.6389 10.3528 11.9527Z" fill="white"/>
</svg>
