<svg width="20" height="20" viewBox="0 0 20 20" fill="none" xmlns="http://www.w3.org/2000/svg">
<g id="briefcase 1">
<path id="Vector" d="M16.667 5.83398H3.33366C2.41318 5.83398 1.66699 6.58018 1.66699 7.50065V15.834C1.66699 16.7545 2.41318 17.5007 3.33366 17.5007H16.667C17.5875 17.5007 18.3337 16.7545 18.3337 15.834V7.50065C18.3337 6.58018 17.5875 5.83398 16.667 5.83398Z" stroke="#3B516C" stroke-width="2" stroke-linecap="round" stroke-linejoin="round"/>
<path id="Vector_2" d="M13.3337 17.5V4.16667C13.3337 3.72464 13.1581 3.30072 12.8455 2.98816C12.5329 2.67559 12.109 2.5 11.667 2.5H8.33366C7.89163 2.5 7.46771 2.67559 7.15515 2.98816C6.84259 3.30072 6.66699 3.72464 6.66699 4.16667V17.5" stroke="#3B516C" stroke-width="2" stroke-linecap="round" stroke-linejoin="round"/>
</g>
</svg>
