<svg width="19" height="19" viewBox="0 0 19 19" fill="none" xmlns="http://www.w3.org/2000/svg">
<path d="M16.6651 5.75991C16.5787 5.41477 16.4027 5.09854 16.155 4.84316C15.9073 4.58778 15.5966 4.4023 15.2542 4.30544C14.0034 4 9 4 9 4C9 4 3.99662 4 2.74578 4.33453C2.40343 4.43138 2.09271 4.61687 1.84499 4.87225C1.59727 5.12763 1.42133 5.44386 1.33494 5.789C1.10602 7.05843 0.994042 8.34618 1.00042 9.63607C0.992256 10.9357 1.10424 12.2332 1.33494 13.5122C1.43018 13.8467 1.61006 14.1509 1.8572 14.3954C2.10434 14.64 2.41039 14.8168 2.74578 14.9085C3.99662 15.2431 9 15.2431 9 15.2431C9 15.2431 14.0034 15.2431 15.2542 14.9085C15.5966 14.8117 15.9073 14.6262 16.155 14.3708C16.4027 14.1154 16.5787 13.7992 16.6651 13.4541C16.8922 12.1942 17.0042 10.9162 16.9996 9.63607C17.0077 8.33647 16.8958 7.0389 16.6651 5.75991Z" stroke="#3B516C" stroke-width="1.5" stroke-linecap="round" stroke-linejoin="round"/>
<path d="M7.36377 12.0159L11.5454 9.63782L7.36377 7.25977V12.0159Z" stroke="#3B516C" stroke-width="1.5" stroke-linecap="round" stroke-linejoin="round"/>
</svg>
