<svg width="40" height="40" viewBox="0 0 40 40" fill="none" xmlns="http://www.w3.org/2000/svg">
<path d="M20.0013 2.33463C10.2443 2.33464 2.33463 10.2443 2.33464 20.0013C2.33464 29.7583 10.2443 37.668 20.0013 37.668C29.7583 37.668 37.668 29.7583 37.668 20.0013C37.668 10.2443 29.7583 2.33463 20.0013 2.33463Z" fill="#2C7BE5" stroke="white" stroke-width="2" stroke-linecap="round" stroke-linejoin="round"/>
<path d="M22.0528 15.3702V11.8238C22.0528 11.1184 21.7681 10.4419 21.2612 9.94309C20.7544 9.44429 20.0669 9.16406 19.3502 9.16406L15.7466 17.1433V26.8958H25.9086C26.3431 26.9006 26.7648 26.7507 27.0959 26.4737C27.427 26.1968 27.6452 25.8114 27.7104 25.3886L28.9536 17.4093C28.9928 17.1552 28.9754 16.8957 28.9025 16.6488C28.8297 16.402 28.7032 16.1737 28.5319 15.9797C28.3605 15.7857 28.1483 15.6308 27.91 15.5255C27.6717 15.4203 27.413 15.3672 27.1518 15.3702H22.0528ZM15.7466 26.8958H13.044C12.5661 26.8958 12.1078 26.7089 11.7699 26.3764C11.432 26.0439 11.2422 25.5929 11.2422 25.1226V18.9165C11.2422 18.4462 11.432 17.9952 11.7699 17.6627C12.1078 17.3301 12.5661 17.1433 13.044 17.1433H15.7466" fill="white"/>
<path d="M15.7466 17.1433L19.3502 9.16406C20.0669 9.16406 20.7544 9.44429 21.2612 9.94309C21.7681 10.4419 22.0528 11.1184 22.0528 11.8238V15.3702H27.1518C27.413 15.3672 27.6717 15.4203 27.91 15.5255C28.1483 15.6308 28.3605 15.7857 28.5319 15.9797C28.7032 16.1737 28.8297 16.402 28.9025 16.6488C28.9754 16.8957 28.9928 17.1552 28.9536 17.4093L27.7104 25.3886C27.6452 25.8114 27.427 26.1968 27.0959 26.4737C26.7648 26.7507 26.3431 26.9006 25.9086 26.8958H15.7466M15.7466 17.1433V26.8958M15.7466 17.1433H13.044C12.5661 17.1433 12.1078 17.3301 11.7699 17.6627C11.432 17.9952 11.2422 18.4462 11.2422 18.9165V25.1226C11.2422 25.5929 11.432 26.0439 11.7699 26.3764C12.1078 26.7089 12.5661 26.8958 13.044 26.8958H15.7466" stroke="#2C7BE5" stroke-linecap="round" stroke-linejoin="round"/>
</svg>
