<svg width="40" height="40" viewBox="0 0 40 40" fill="none" xmlns="http://www.w3.org/2000/svg">
<path d="M20.0013 2.33317C10.2443 2.33317 2.33463 10.2428 2.33464 19.9998C2.33464 29.7569 10.2443 37.6665 20.0013 37.6665C29.7583 37.6665 37.668 29.7569 37.668 19.9998C37.668 10.2428 29.7583 2.33317 20.0013 2.33317Z" fill="#E63757" stroke="#E4EBF6" stroke-width="2" stroke-linecap="round" stroke-linejoin="round"/>
<path d="M28.0349 14.4145C27.5707 13.9661 27.0195 13.6103 26.4128 13.3676C25.8061 13.1249 25.1558 13 24.4991 13C23.8424 13 23.1921 13.1249 22.5854 13.3676C21.9787 13.6103 21.4275 13.9661 20.9633 14.4145L19.9998 15.3448L19.0363 14.4145C18.0985 13.5091 16.8266 13.0005 15.5004 13.0005C14.1742 13.0005 12.9024 13.5091 11.9646 14.4145C11.0268 15.3199 10.5 16.5479 10.5 17.8283C10.5 19.1088 11.0268 20.3367 11.9646 21.2421L12.9281 22.1724L16.4639 25.5862L19.9998 29L27.0714 22.1724L28.0349 21.2421C28.4994 20.7939 28.8678 20.2617 29.1192 19.676C29.3706 19.0902 29.5 18.4624 29.5 17.8283C29.5 17.1943 29.3706 16.5664 29.1192 15.9807C28.8678 15.3949 28.4994 14.8627 28.0349 14.4145Z" fill="white"/>
</svg>
