<svg width="40" height="40" viewBox="0 0 40 40" fill="none" xmlns="http://www.w3.org/2000/svg">
<path d="M20.0013 2.33464C10.2443 2.33464 2.33463 10.2443 2.33464 20.0013C2.33464 29.7583 10.2443 37.668 20.0013 37.668C29.7583 37.668 37.668 29.7583 37.668 20.0013C37.668 10.2443 29.7583 2.33464 20.0013 2.33464Z" fill="#E63757" stroke="#F9FBFD" stroke-width="2" stroke-linecap="round" stroke-linejoin="round"/>
<path d="M26.5839 14.8399L26.5843 14.8403C26.9284 15.1953 27.2031 15.6184 27.391 16.0864C27.5789 16.5544 27.676 17.0571 27.676 17.5654C27.676 18.0738 27.5789 18.5765 27.391 19.0445C27.2031 19.5125 26.9284 19.9356 26.5843 20.2906L26.5841 20.2908L25.6806 21.2231L19.7675 27.3246L13.8543 21.2231L13.1362 21.919L13.8543 21.2231L12.9509 20.2908C12.2554 19.5732 11.8594 18.5934 11.8594 17.5654C11.8594 16.5375 12.2554 15.5577 12.9509 14.8401C13.6453 14.1236 14.5803 13.727 15.5484 13.727C16.5164 13.727 17.4515 14.1236 18.1459 14.8401L19.0494 15.7724C19.2377 15.9667 19.4968 16.0764 19.7675 16.0764C20.0381 16.0764 20.2972 15.9667 20.4856 15.7724L21.3891 14.8401L21.3892 14.8399C21.7332 14.4848 22.1399 14.2049 22.5852 14.0145C23.0305 13.8241 23.5066 13.7266 23.9866 13.7266C24.4666 13.7266 24.9427 13.8241 25.3879 14.0145C25.8333 14.2049 26.24 14.4848 26.5839 14.8399Z" fill="white" stroke="white" stroke-width="2" stroke-linecap="round" stroke-linejoin="round"/>
</svg>
