<svg width="40" height="40" viewBox="0 0 40 40" fill="none" xmlns="http://www.w3.org/2000/svg">
<path d="M19.5 3C9.83502 3 2 10.835 2 20.5C2 30.165 9.83502 38 19.5 38C29.165 38 37 30.165 37 20.5C37 10.835 29.165 3 19.5 3Z" fill="#F5D83E" stroke="white" stroke-width="2" stroke-linecap="round" stroke-linejoin="round"/>
<path fill-rule="evenodd" clip-rule="evenodd" d="M19.5 29C24.1944 29 28 25.1944 28 20.5C28 15.8056 24.1944 12 19.5 12C14.8056 12 11 15.8056 11 20.5C11 25.1944 14.8056 29 19.5 29ZM16.3125 19.7917C16.8993 19.7917 17.375 19.316 17.375 18.7292C17.375 18.1424 16.8993 17.6667 16.3125 17.6667C15.7257 17.6667 15.25 18.1424 15.25 18.7292C15.25 19.316 15.7257 19.7917 16.3125 19.7917ZM23.75 18.7292C23.75 19.316 23.2743 19.7917 22.6875 19.7917C22.1007 19.7917 21.625 19.316 21.625 18.7292C21.625 18.1424 22.1007 17.6667 22.6875 17.6667C23.2743 17.6667 23.75 18.1424 23.75 18.7292ZM19.8536 23.6857C20.5991 22.9402 21.3024 22.8354 21.866 22.9942C22.4641 23.1626 22.9983 23.6549 23.3028 24.2638C23.4263 24.5108 23.7267 24.6109 23.9736 24.4874C24.2206 24.3639 24.3207 24.0635 24.1972 23.8165C23.7934 23.0091 23.0588 22.2912 22.1371 22.0316C21.1808 21.7623 20.1134 22.0117 19.1464 22.9786C18.17 23.9551 17.4565 24.0325 16.965 23.9096C16.4106 23.771 15.9708 23.3458 15.6036 22.9786C15.4083 22.7833 15.0918 22.7832 14.8965 22.9785C14.7012 23.1737 14.7012 23.4903 14.8964 23.6856L14.9185 23.7077C15.2641 24.0536 15.8785 24.6688 16.7225 24.8798C17.6477 25.1111 18.705 24.8344 19.8536 23.6857Z" fill="white"/>
</svg>
