<svg width="24" height="24" viewBox="0 0 24 24" fill="none" xmlns="http://www.w3.org/2000/svg">
<path d="M12 1.5C6.20101 1.5 1.5 6.20101 1.5 12C1.5 17.799 6.20101 22.5 12 22.5C17.799 22.5 22.5 17.799 22.5 12C22.5 6.20101 17.799 1.5 12 1.5Z" fill="#2C7BE5" stroke="white" stroke-linecap="round" stroke-linejoin="round"/>
<path d="M13.2325 9.72366V7.59585C13.2325 7.17261 13.0616 6.76669 12.7575 6.46741C12.4534 6.16813 12.0409 6 11.6109 6L9.44875 10.7876V16.639H15.5459C15.8067 16.6419 16.0597 16.552 16.2583 16.3858C16.457 16.2196 16.5879 15.9884 16.627 15.7347L17.3729 10.9471C17.3965 10.7947 17.386 10.639 17.3423 10.4909C17.2986 10.3428 17.2227 10.2058 17.1199 10.0894C17.0171 9.973 16.8897 9.88001 16.7468 9.81686C16.6038 9.75371 16.4486 9.72191 16.2919 9.72366H13.2325ZM9.44875 16.639H7.82716C7.54044 16.639 7.26547 16.5269 7.06273 16.3274C6.85999 16.1279 6.74609 15.8573 6.74609 15.5751V11.8515C6.74609 11.5693 6.85999 11.2987 7.06273 11.0992C7.26547 10.8996 7.54044 10.7876 7.82716 10.7876H9.44875" fill="white"/>
<path d="M9.44875 10.7876L11.6109 6C12.0409 6 12.4534 6.16813 12.7575 6.46741C13.0616 6.76669 13.2325 7.17261 13.2325 7.59585V9.72366H16.2919C16.4486 9.72191 16.6038 9.75371 16.7468 9.81686C16.8897 9.88001 17.0171 9.973 17.1199 10.0894C17.2227 10.2058 17.2986 10.3428 17.3423 10.4909C17.386 10.639 17.3965 10.7947 17.3729 10.9471L16.627 15.7347C16.5879 15.9884 16.457 16.2196 16.2583 16.3858C16.0597 16.552 15.8067 16.6419 15.5459 16.639H9.44875M9.44875 10.7876V16.639M9.44875 10.7876H7.82716C7.54044 10.7876 7.26547 10.8996 7.06273 11.0992C6.85999 11.2987 6.74609 11.5693 6.74609 11.8515V15.5751C6.74609 15.8573 6.85999 16.1279 7.06273 16.3274C7.26547 16.5269 7.54044 16.639 7.82716 16.639H9.44875" stroke="#2C7BE5" stroke-width="0.5" stroke-linecap="round" stroke-linejoin="round"/>
</svg>
