<svg width="24" height="24" viewBox="0 0 24 24" fill="none" xmlns="http://www.w3.org/2000/svg">
<path d="M12 1.5C6.20101 1.5 1.5 6.20101 1.5 12C1.5 17.799 6.20101 22.5 12 22.5C17.799 22.5 22.5 17.799 22.5 12C22.5 6.20101 17.799 1.5 12 1.5Z" fill="#E63757" stroke="white" stroke-linecap="round" stroke-linejoin="round"/>
<path d="M16.6518 8.38407C16.383 8.1038 16.0639 7.88146 15.7127 7.72977C15.3614 7.57808 14.9849 7.5 14.6047 7.5C14.2245 7.5 13.8481 7.57808 13.4968 7.72977C13.1456 7.88146 12.8265 8.1038 12.5577 8.38407L11.9999 8.96547L11.442 8.38407C10.8991 7.8182 10.1628 7.50029 9.39498 7.50029C8.62719 7.50029 7.89084 7.8182 7.34792 8.38407C6.80501 8.94995 6.5 9.71744 6.5 10.5177C6.5 11.318 6.80501 12.0855 7.34792 12.6513L7.90573 13.2327L9.9528 15.3664L11.9999 17.5L16.094 13.2327L16.6518 12.6513C16.9207 12.3712 17.134 12.0386 17.2796 11.6725C17.4251 11.3064 17.5 10.914 17.5 10.5177C17.5 10.1214 17.4251 9.72903 17.2796 9.36293C17.134 8.99684 16.9207 8.66422 16.6518 8.38407Z" fill="white"/>
</svg>
