<svg width="24" height="24" viewBox="0 0 24 24" fill="none" xmlns="http://www.w3.org/2000/svg">
<path d="M12 1.5C6.20101 1.5 1.5 6.20101 1.5 12C1.5 17.799 6.20101 22.5 12 22.5C17.799 22.5 22.5 17.799 22.5 12C22.5 6.20101 17.799 1.5 12 1.5Z" fill="#E63757" stroke="white" stroke-linecap="round" stroke-linejoin="round"/>
<path d="M13.3043 9.5465L13.3044 9.54633C13.4743 9.371 13.6742 9.23365 13.892 9.14054C14.1097 9.04747 14.3418 9 14.5755 9C14.8092 9 15.0414 9.04747 15.2591 9.14054C15.4769 9.23365 15.6768 9.371 15.8466 9.54633L15.847 9.54666C16.0169 9.72197 16.1534 9.93181 16.247 10.165L17.175 9.79233L16.247 10.165C16.3406 10.3982 16.3892 10.6492 16.3892 10.9033C16.3892 11.1575 16.3406 11.4085 16.247 11.6417L17.124 11.9939L16.247 11.6417C16.1534 11.8749 16.0169 12.0847 15.847 12.26L15.8468 12.2602L15.3047 12.8195L12.0441 16.1841L8.78344 12.8195L8.24135 12.2602C7.89765 11.9055 7.69922 11.418 7.69922 10.9033C7.69922 10.3887 7.89765 9.90115 8.24135 9.5465C8.58402 9.19291 9.04197 9.00028 9.51261 9.00028C9.98325 9.00028 10.4412 9.19291 10.7839 9.5465L11.326 10.1059C11.5143 10.3002 11.7734 10.4099 12.0441 10.4099C12.3147 10.4099 12.5738 10.3002 12.7622 10.1059L13.3043 9.5465Z" fill="white" stroke="white" stroke-width="2" stroke-linecap="round" stroke-linejoin="round"/>
</svg>
