<svg width="24" height="24" viewBox="0 0 24 24" fill="none" xmlns="http://www.w3.org/2000/svg">
<path d="M12 1.5C6.20101 1.5 1.5 6.20101 1.5 12C1.5 17.799 6.20101 22.5 12 22.5C17.799 22.5 22.5 17.799 22.5 12C22.5 6.20101 17.799 1.5 12 1.5Z" fill="#F5D83E" stroke="white" stroke-linecap="round" stroke-linejoin="round"/>
<path fill-rule="evenodd" clip-rule="evenodd" d="M12 18C15.3137 18 18 15.3137 18 12C18 8.68629 15.3137 6 12 6C8.68629 6 6 8.68629 6 12C6 15.3137 8.68629 18 12 18ZM9.75 11.5C10.1642 11.5 10.5 11.1642 10.5 10.75C10.5 10.3358 10.1642 10 9.75 10C9.33579 10 9 10.3358 9 10.75C9 11.1642 9.33579 11.5 9.75 11.5ZM15 10.75C15 11.1642 14.6642 11.5 14.25 11.5C13.8358 11.5 13.5 11.1642 13.5 10.75C13.5 10.3358 13.8358 10 14.25 10C14.6642 10 15 10.3358 15 10.75ZM12.3536 14.3539C12.8472 13.8602 13.2902 13.8075 13.6302 13.9033C14.0049 14.0088 14.3524 14.3231 14.5528 14.7237C14.6763 14.9707 14.9767 15.0708 15.2236 14.9473C15.4706 14.8238 15.5707 14.5234 15.4472 14.2764C15.1476 13.6773 14.5995 13.1373 13.9013 12.9407C13.1686 12.7343 12.3616 12.9316 11.6464 13.6468C10.9825 14.3107 10.5294 14.3361 10.2463 14.2653C9.90016 14.1787 9.6166 13.9098 9.35359 13.6467C9.15834 13.4514 8.84176 13.4514 8.64648 13.6467C8.4512 13.8419 8.45117 14.1585 8.64641 14.3538L8.66637 14.3737C8.90906 14.6169 9.36772 15.0764 10.0037 15.2354C10.7206 15.4146 11.5175 15.19 12.3536 14.3539Z" fill="white"/>
</svg>
