<svg width="20" height="20" viewBox="0 0 20 20" fill="none" xmlns="http://www.w3.org/2000/svg">
<path d="M6.8024 8.34996L9.44432 2.5C9.96983 2.5 10.4738 2.70544 10.8454 3.07114C11.217 3.43683 11.4258 3.93282 11.4258 4.44999V7.04997H15.1641C15.3556 7.04784 15.5452 7.0867 15.7199 7.16386C15.8946 7.24103 16.0502 7.35465 16.1758 7.49685C16.3015 7.63906 16.3942 7.80645 16.4476 7.98743C16.501 8.16841 16.5138 8.35864 16.485 8.54496L15.5736 14.3949C15.5258 14.7049 15.3658 14.9875 15.1231 15.1905C14.8803 15.3936 14.5712 15.5035 14.2526 15.4999H6.8024M6.8024 8.34996V15.4999M6.8024 8.34996H4.82096C4.47062 8.34996 4.13463 8.48693 3.8869 8.73072C3.63917 8.97452 3.5 9.30518 3.5 9.64995V14.1999C3.5 14.5447 3.63917 14.8754 3.8869 15.1192C4.13463 15.363 4.47062 15.4999 4.82096 15.4999H6.8024" stroke="#6E84A3" stroke-width="1.5" stroke-linecap="round" stroke-linejoin="round"/>
</svg>
