<svg width="18" height="18" viewBox="0 0 18 18" fill="none" xmlns="http://www.w3.org/2000/svg">
<g id="user-plus 1" clip-path="url(#clip0_4906_146552)">
<path id="Vector" d="M6.16797 15.375V13.9583C6.16797 13.2069 6.46648 12.4862 6.99783 11.9549C7.52919 11.4235 8.24986 11.125 9.0013 11.125H13.9596C14.7111 11.125 15.4318 11.4235 15.9631 11.9549C16.4945 12.4862 16.793 13.2069 16.793 13.9583V15.375" stroke="white" stroke-width="1.5" stroke-linecap="round" stroke-linejoin="round"/>
<path id="Vector_2" d="M11.4792 8.29167C9.91436 8.29167 8.64583 7.02314 8.64583 5.45833C8.64583 3.89353 9.91436 2.625 11.4792 2.625C13.044 2.625 14.3125 3.89353 14.3125 5.45833C14.3125 7.02314 13.044 8.29167 11.4792 8.29167Z" stroke="white" stroke-width="1.5" stroke-linecap="round" stroke-linejoin="round"/>
<path id="Vector_3" d="M3.33203 6.17188V10.4219" stroke="white" stroke-width="1.5" stroke-linecap="round" stroke-linejoin="round"/>
<path id="Vector_4" d="M1.20703 8.29688H5.45703" stroke="white" stroke-width="1.5" stroke-linecap="round" stroke-linejoin="round"/>
</g>
<defs>
<clipPath id="clip0_4906_146552">
<rect width="17" height="17" fill="white" transform="matrix(-1 0 0 1 17.5 0.5)"/>
</clipPath>
</defs>
</svg>
