<svg width="16" height="16" viewBox="0 0 16 16" fill="none" xmlns="http://www.w3.org/2000/svg">
<g clip-path="url(#clip0_8202_121601)">
<path d="M9.04847 13.4629C8.94173 13.6469 8.78852 13.7996 8.60418 13.9058C8.41984 14.012 8.21084 14.0679 7.99811 14.0679C7.78538 14.0679 7.57638 14.012 7.39204 13.9058C7.20771 13.7996 7.0545 13.6469 6.94775 13.4629" stroke="#95AAC9" stroke-width="1.5" stroke-linecap="round" stroke-linejoin="round"/>
<path d="M12.024 8.60578C11.7539 7.61699 11.6251 6.59495 11.6415 5.57007" stroke="#95AAC9" stroke-width="1.5" stroke-linecap="round" stroke-linejoin="round"/>
<path d="M4.51347 4.51367C4.40798 4.85586 4.35477 5.21202 4.35561 5.5701C4.35561 9.8201 2.53418 11.0344 2.53418 11.0344H11.0342" stroke="#95AAC9" stroke-width="1.5" stroke-linecap="round" stroke-linejoin="round"/>
<path d="M11.6412 5.56965C11.6422 4.90972 11.4639 4.26193 11.1253 3.69545C10.7868 3.12898 10.3007 2.66511 9.71906 2.35339C9.1374 2.04168 8.48198 1.89382 7.82282 1.92562C7.16366 1.95742 6.52552 2.16768 5.97656 2.53394" stroke="#95AAC9" stroke-width="1.5" stroke-linecap="round" stroke-linejoin="round"/>
<path d="M1.31982 1.32007L14.677 14.6772" stroke="#95AAC9" stroke-width="1.5" stroke-linecap="round" stroke-linejoin="round"/>
</g>
<defs>
<clipPath id="clip0_8202_121601">
<rect width="16" height="16" fill="white"/>
</clipPath>
</defs>
</svg>
