<svg width="21" height="21" viewBox="0 0 21 21" fill="none" xmlns="http://www.w3.org/2000/svg">
<path d="M9.83203 5.16797H5.16536C4.81174 5.16797 4.4726 5.30844 4.22256 5.55849C3.97251 5.80854 3.83203 6.14768 3.83203 6.5013V15.8346C3.83203 16.1883 3.97251 16.5274 4.22256 16.7774C4.4726 17.0275 4.81174 17.168 5.16536 17.168H14.4987C14.8523 17.168 15.1915 17.0275 15.4415 16.7774C15.6916 16.5274 15.832 16.1883 15.832 15.8346V11.168" stroke="#12263F" stroke-width="1.5" stroke-linecap="round" stroke-linejoin="round"/>
<path d="M14.832 4.16812C15.0972 3.9029 15.457 3.75391 15.832 3.75391C16.2071 3.75391 16.5668 3.9029 16.832 4.16812C17.0972 4.43334 17.2462 4.79305 17.2462 5.16812C17.2462 5.54319 17.0972 5.9029 16.832 6.16812L10.4987 12.5015L7.83203 13.1681L8.4987 10.5015L14.832 4.16812Z" stroke="#12263F" stroke-width="1.5" stroke-linecap="round" stroke-linejoin="round"/>
</svg>
