<svg width="20" height="20" viewBox="0 0 20 20" fill="none" xmlns="http://www.w3.org/2000/svg">
<path d="M2.5 5H4.16667H17.5" stroke="#3B516C" stroke-width="1.66667" stroke-linecap="round" stroke-linejoin="round"/>
<path d="M15.8327 4.9974V16.6641C15.8327 17.1061 15.6571 17.53 15.3445 17.8426C15.032 18.1551 14.608 18.3307 14.166 18.3307H5.83268C5.39065 18.3307 4.96673 18.1551 4.65417 17.8426C4.34161 17.53 4.16602 17.1061 4.16602 16.6641V4.9974M6.66602 4.9974V3.33073C6.66602 2.8887 6.84161 2.46478 7.15417 2.15222C7.46673 1.83966 7.89065 1.66406 8.33268 1.66406H11.666C12.108 1.66406 12.532 1.83966 12.8445 2.15222C13.1571 2.46478 13.3327 2.8887 13.3327 3.33073V4.9974" stroke="#3B516C" stroke-width="1.66667" stroke-linecap="round" stroke-linejoin="round"/>
<path d="M8.33398 9.16406V14.1641" stroke="#3B516C" stroke-width="1.66667" stroke-linecap="round" stroke-linejoin="round"/>
<path d="M11.666 9.16406V14.1641" stroke="#3B516C" stroke-width="1.66667" stroke-linecap="round" stroke-linejoin="round"/>
</svg>
