<svg width="16" height="16" viewBox="0 0 16 16" fill="none" xmlns="http://www.w3.org/2000/svg">
<g clip-path="url(#clip0_8802_172360)">
<path d="M9.04896 13.4609C8.94221 13.6449 8.789 13.7977 8.60466 13.9039C8.42033 14.01 8.21133 14.0659 7.9986 14.0659C7.78587 14.0659 7.57687 14.01 7.39253 13.9039C7.20819 13.7977 7.05498 13.6449 6.94824 13.4609" stroke="#95AAC9" stroke-width="1.5" stroke-linecap="round" stroke-linejoin="round"/>
<path d="M12.0245 8.60603C11.7544 7.61724 11.6256 6.5952 11.642 5.57031" stroke="#95AAC9" stroke-width="1.5" stroke-linecap="round" stroke-linejoin="round"/>
<path d="M4.51444 4.51562C4.40896 4.85782 4.35574 5.21397 4.35658 5.57205C4.35658 9.82205 2.53516 11.0363 2.53516 11.0363H11.0352" stroke="#95AAC9" stroke-width="1.5" stroke-linecap="round" stroke-linejoin="round"/>
<path d="M11.6412 5.57014C11.6422 4.91021 11.4639 4.26242 11.1253 3.69594C10.7868 3.12947 10.3007 2.6656 9.71906 2.35388C9.1374 2.04217 8.48198 1.89431 7.82282 1.92611C7.16366 1.95791 6.52552 2.16816 5.97656 2.53442" stroke="#95AAC9" stroke-width="1.5" stroke-linecap="round" stroke-linejoin="round"/>
<path d="M1.32031 1.32031L14.6775 14.6775" stroke="#95AAC9" stroke-width="1.5" stroke-linecap="round" stroke-linejoin="round"/>
</g>
<defs>
<clipPath id="clip0_8802_172360">
<rect width="16" height="16" fill="white"/>
</clipPath>
</defs>
</svg>
